<?xml version="1.0" standalone="no"?>
<!DOCTYPE svg PUBLIC "-//W3C//DTD SVG 20010904//EN"
 "http://www.w3.org/TR/2001/REC-SVG-20010904/DTD/svg10.dtd">
<svg version="1.0" xmlns="http://www.w3.org/2000/svg"
 width="256.000000pt" height="256.000000pt" viewBox="0 0 256.000000 256.000000"
 preserveAspectRatio="xMidYMid meet">

<g transform="translate(0.000000,256.000000) scale(0.100000,-0.100000)"
fill="#000000" stroke="none">
<path d="M725 2154 c-292 -135 -538 -254 -548 -266 -16 -19 -17 -74 -17 -850
l0 -829 25 -24 24 -25 1071 0 1071 0 24 25 25 24 0 829 c0 776 -1 831 -17 850
-22 25 -1076 512 -1106 511 -12 0 -260 -111 -552 -245z m1035 -143 l475 -220
3 -735 2 -736 -80 0 -80 0 0 615 0 616 -25 24 -24 25 -751 0 -751 0 -24 -25
-25 -24 0 -616 0 -615 -80 0 -80 0 2 735 3 736 475 219 c261 121 477 220 480
220 3 0 219 -99 480 -219z m160 -651 l0 -80 -640 0 -640 0 0 80 0 80 640 0
640 0 0 -80z m0 -320 l0 -80 -640 0 -640 0 0 80 0 80 640 0 640 0 0 -80z m0
-320 l0 -80 -640 0 -640 0 0 80 0 80 640 0 640 0 0 -80z m0 -320 l0 -80 -640
0 -640 0 0 80 0 80 640 0 640 0 0 -80z"/>
</g>
</svg>
